<svg width="32" height="40" viewBox="0 0 32 40" fill="none" xmlns="http://www.w3.org/2000/svg">
<path d="M9.57748 18.0891L16 24.5116L26.5892 13.9225L25.4108 12.7441L16 22.155L10.7558 16.9108L9.57748 18.0891Z" fill="black"/>
<path d="M31 8.33327C28.3492 8.33327 21.7958 4.13327 16.99 0.536602C16.3975 0.0932682 15.6025 0.0932682 15.0108 0.536602C10.2042 4.13327 3.65082 8.33327 0.99999 8.33327H0.166656V9.1666C0.166656 35.6224 14.0508 39.5774 15.6342 39.9416C15.7575 39.9699 15.8783 39.9841 16 39.9841C16.1217 39.9841 16.2433 39.9699 16.3667 39.9416C17.4492 39.6924 21.2625 38.5416 24.8683 34.1791C29.49 28.5866 31.8333 20.1716 31.8333 9.1666V8.33327H31ZM16.0067 38.3166C14.57 37.9866 2.08832 34.4058 1.83666 9.92077C5.82916 9.2266 12.9683 4.14493 15.99 1.87077C19.0292 4.14493 26.17 9.2266 30.1625 9.92077C29.9117 34.4066 17.4292 37.9866 16.0067 38.3166Z" fill="black"/>
</svg>
