<svg width="40" height="40" viewBox="0 0 40 40" fill="none" xmlns="http://www.w3.org/2000/svg">
<path d="M29.3183 24.015C28.9925 23.6892 28.4658 23.6892 28.14 24.015L26.6658 25.4892L23.5342 22.3583L26.52 19.3725C27.6367 19.7892 28.8042 20 30 20C35.5142 20 40 15.5142 40 10C40 8.6125 39.7158 7.26167 39.1558 5.98583L38.6658 4.86917L31.7675 11.7675C31.2958 12.24 30.6683 12.5 30 12.5C28.6217 12.5 27.5 11.3783 27.5 10C27.5 9.3325 27.76 8.70417 28.2317 8.2325L35.13 1.335L34.0133 0.844167C32.7383 0.284167 31.3875 0 30 0C24.4858 0 20 4.48583 20 10C20 11.1958 20.2108 12.3642 20.6275 13.4808L17.6417 16.4667L10.3433 9.16833L13.0892 6.4225C13.2708 6.24083 13.3583 5.98667 13.3275 5.73167C13.2967 5.47667 13.1492 5.25083 12.9292 5.11917L4.875 0.286667C4.38167 -0.0108333 3.75333 0.0675 3.3475 0.474167L0.474167 3.3475C0.0691667 3.7525 -0.00916667 4.38 0.285833 4.875L5.11833 12.9292C5.25 13.1492 5.47667 13.2958 5.73083 13.3275C5.765 13.3308 5.79917 13.3333 5.83333 13.3333C6.05333 13.3333 6.26583 13.2467 6.4225 13.0892L9.165 10.3467L16.4633 17.645L1.22 32.8875C0.433333 33.6742 0 34.72 0 35.8333C0 38.1308 1.86917 40 4.16667 40C5.28 40 6.32667 39.5658 7.11333 38.7792L22.3558 23.5367L25.4875 26.6675L24.0158 28.1392C23.69 28.465 23.69 28.9917 24.0158 29.3175L33.5992 38.9008C34.3058 39.6092 35.2483 40 36.25 40C38.3175 40 40 38.3175 40 36.25C40 35.2475 39.61 34.3058 38.9008 33.5975L29.3183 24.015ZM5.99917 11.1567L1.8825 4.29667L4.29583 1.88333L11.1558 5.99833L5.99917 11.1567ZM5.93417 37.6008C5.4625 38.0733 4.835 38.3333 4.16667 38.3333C2.78833 38.3333 1.66667 37.2117 1.66667 35.8333C1.66667 35.1658 1.92667 34.5375 2.39833 34.0658L22.5992 13.8658L22.37 13.3442C21.9033 12.28 21.6667 11.1558 21.6667 10C21.6667 5.405 25.405 1.66667 30 1.66667C30.7333 1.66667 31.455 1.76167 32.1558 1.95167L27.0533 7.05417C26.2667 7.84083 25.8333 8.88667 25.8333 10C25.8333 12.2975 27.7025 14.1667 30 14.1667C31.1133 14.1667 32.16 13.7325 32.9467 12.9458L38.0492 7.84333C38.2375 8.545 38.3333 9.26583 38.3333 10C38.3333 14.595 34.595 18.3333 30 18.3333C28.8442 18.3333 27.7192 18.0967 26.6558 17.6292L26.135 17.4008L5.93417 37.6008ZM36.25 38.3333C35.6933 38.3333 35.1708 38.1167 34.7767 37.7233L25.7825 28.7292L28.7283 25.7833L37.7225 34.7775C37.7225 34.7775 37.7225 34.7775 37.7225 34.7783C38.1167 35.17 38.3333 35.6933 38.3333 36.25C38.3333 37.3992 37.3983 38.3333 36.25 38.3333Z" fill="black"/>
</svg>
