<svg width="40" height="30" viewBox="0 0 40 30" fill="none" xmlns="http://www.w3.org/2000/svg">
<path fill-rule="evenodd" clip-rule="evenodd" d="M35.7983 10.87L39.7108 16.9566C39.9 17.2516 40 17.5916 40 17.9383V24.815C40 25.8375 39.1475 26.6666 38.095 26.6666H36.5483C36.1758 28.1 34.8817 29.1666 33.3333 29.1666C31.785 29.1666 30.4908 28.1 30.1183 26.6666H26.6667H9.88167C9.50917 28.1 8.215 29.1666 6.66667 29.1666C5.11833 29.1666 3.82417 28.1 3.45167 26.6666H1.66667C0.745833 26.6666 0 25.9208 0 25V20.8333H1.66667V25H3.45167C3.82417 23.5666 5.11833 22.5 6.66667 22.5C8.215 22.5 9.50917 23.5666 9.88167 25H26.6667V9.99995V2.57829H10V0.911621H26.6667C27.5875 0.911621 28.3333 1.65745 28.3333 2.57829V9.99995H34.1825C34.8392 9.99995 35.4492 10.3291 35.7983 10.87ZM5 25.8333C5 26.7525 5.7475 27.5 6.66667 27.5C7.58583 27.5 8.33333 26.7525 8.33333 25.8333C8.33333 24.9141 7.58583 24.1666 6.66667 24.1666C5.7475 24.1666 5 24.9141 5 25.8333ZM33.3333 27.5C32.4142 27.5 31.6667 26.7525 31.6667 25.8333C31.6667 24.9141 32.4142 24.1666 33.3333 24.1666C34.2525 24.1666 35 24.9141 35 25.8333C35 26.7525 34.2525 27.5 33.3333 27.5ZM38.095 25C38.2375 25 38.3333 24.9041 38.3333 24.815V17.9383C38.3333 17.9116 38.325 17.8833 38.3083 17.8583L34.3958 11.7716C34.355 11.7075 34.2708 11.6666 34.1825 11.6666H28.3333V25H30.1183C30.4908 23.5666 31.785 22.5 33.3333 22.5C34.8817 22.5 36.1758 23.5666 36.5483 25H38.095Z" fill="black"/>
<rect x="6.66667" y="5.83325" width="8.33333" height="1.66667" fill="black"/>
<rect x="3.33333" y="10.8333" width="8.33333" height="1.66667" fill="black"/>
<rect y="15.8333" width="8.33333" height="1.66667" fill="black"/>
</svg>
